<!-- birth -->
<svg version="1.1" id="Layer_1" 
     xmlns="http://www.w3.org/2000/svg" 
     x="0px" y="0px" width="34px" height="33px"     
     xml:space="preserve">
     <title>Date of birth</title>
     <path d="M 27.4 13.8 c -0.3 2.6 -5.8 2.3 -5.8 2.3 c -1.2 
              -2.3 -4.6 -5.8 -3.5 -9.2 c 0 -1.2 5.8 -5.8 11.9 
              -5.8 c 3.1 3.8 3.1 9.6 1.8 13.6 c -1.6 3.2 -1.6 
              3.2 -1.6 3.2 c -1.6 3.2 -8.1 9.2 -15.7 13.4 c -3.5 
              1.2 -9.6 0 -9.6 -4.8 c 1.2 -5.8 5.8 -8.1 8.1 -10.4 
              c -3.5 2.3 -4.6 4.6 -8.1 4.6 c -1.2 0 -2.3 -1.5 -3.5 
              -2.3 c 6.9 0 12.7 -5.8 15 -4.6 c 0 0 0 0 0 0 c 0 3.5 
              0 5.8 -1 7.8 c 0 -1.6 3.2 -3.2 2.9 -1.5 c -1.2 -2.3 0 
              -5.8 -2.3 -6.9 c -0.8 -0.4 -1.2 -1.2 -2.3 -1.2 c 0.8 
              -0.4 1.5 -0.8 2.3 -1.2 c 1 0.5 2.6 0.5 3.3 2.8 c 1 
              3.1 2.6 3.1 3.2 3.2"
          style="fill: #777777;
          position: relative;
          top: 10px" 
     />
</svg>
