<svg version="1.1" id="Layer_1" 
    xmlns="http://www.w3.org/2000/svg" 
    x="0px" y="0px" width="35px" height="30px"     
    xml:space="preserve">
    <title>Bootstrap</title>
    <path d="m 17.5 1 l -9.9 0 q -3.3 0 -3.3 3.3 l -0.3 4.7 c 0 2 -0.8
4.1 -3 5.2 l 0 1.1 c 2.2 1.1 3 3.7 3 5.7 l 0.3 4.2 q 0 3.3 3.3
3.3 l 9.9 0 l 9.9 0 q 3.3 0 3.3 -3.3 l 0.3 -4.2 c 0 -2 0.8 -4.6
3 -5.7 l 0 -1.1 c -2.2 -1.1 -3 -3.2 -3 -5.2 l -0.3 -4.7 q 0
-3.3 -3.3 -3.3 l -9.9 0 m -3 8.25 l 0 4.675 l 3.95 0 c 3.3 -0.825
3.3 -4.125 0 -4.675 l -3.95 0 m 0 6.325 l 0 4.675 l 3.95 0 c
4.4 0 4.35 -4.75 -0.15 -4.75 l -3.8 0.075 m -1.65 -7.975 l 5.6
0 c 4.4 0 5.5 5.5 1.85 6.9 c 4.75 0.25 4.75 7.4 -1.85 7.4 l
-5.6 0 l 0 -14.3"
          fill="#6141be" />
</svg>
