<!-- GitHub -->
<svg version="1.1" id="github" 
  xmlns="http://www.w3.org/2000/svg" 
  x="0px" y="0px" width="32px" height="32px"     
  xml:space="preserve"> 
  <title>Github</title>
  <path d="M 16.464 0 M 16.464 1.176 C -3.528 2.352 -3.528 27.636
    11.172 31.752 C 12.348 31.752 12.348 29.988 12.348 27.048
    C 5.88 28.224 7.644 24.108 5.88 22.932 C 4.704 22.344 4.704
    21.756 5.88 21.756 C 8.82 22.344 7.056 27.048 12.348 24.696
    C 12.348 23.52 12.936 22.344 13.524 22.344 C 5.292 21.756 
    5.88 14.112 8.232 12.348 C 7.644 11.172 7.644 9.408 8.82 
    7.056 C 11.172 7.644 12.348 8.82 12.936 9.408 C 15.288 8.82 
    17.64 8.82 19.992 9.408 C 20.58 8.82 21.756 7.644 24.108 
    7.056 C 25.284 9.408 25.284 11.172 24.696 12.348 C 27.048 
    14.112 27.636 22.344 19.404 22.344 C 22.344 22.932 19.404 
    32.928 22.344 31.752 C 37.044 25.284 34.692 2.352 16.464 
    1.176" 
    style='fill: #333333;' />
</svg>
