<!-- mobile -->
<svg version="1.1" id="Layer_1" 
     xmlns="http://www.w3.org/2000/svg" 
     x="0px" y="0px" width="20px" height="31px"     
     xml:space="preserve">
<path d="M 10 1 c -9 0 -9 0 -9 1.5 c 0 8.5 0 16.9999 0 25.5 c 0 1.5 0 1.5 9 1.5 c 0 -0.5 0 -1 0 -1.5 c -3 0 -3 -3 0 -3 c 0 -0.5 0 -1 0 -1.5 c -7.5 0 -7.5 0 -7.5 -1.5 c 0 -5 0 -10 0 -15 c 0 -1.5 0 -1.5 7.5 -1.5 c 0 -0.5 0 -1 0 -1.5 c 0 0 0 0 0 0 c 0 0 0 0 0 0 c -9 0 -9 -1.5 0 -1.5 c 0 -0.5 0 -1 0 -1.5 c 9 0 9 0 9 1.5 c 0 8.5 0 16.9999 0 25.5 c 0 1.5 0 1.5 -9 1.5 c 0 -0.5 0 -1 0 -1.5 c 3 0 3 -3 0 -3 c 0 -0.5 0 -1 0 -1.5 c 7.5 0 7.5 0 7.5 -1.5 c 0 -5 0 -10 0 -15 c 0 -1.5 0 -1.5 -7.5 -1.5 c 0 -0.5 0 -1 0 -1.5 c 9 0 9 -1.5 0 -1.5"
style="fill: #777777" />
</svg>
